<svg width="55" height="37" viewBox="0 0 55 37" fill="none" xmlns="http://www.w3.org/2000/svg">
<path fill-rule="evenodd" clip-rule="evenodd" d="M53.3349 5.21661L53.3454 8.32211C53.351 10.0884 52.9232 11.419 51.982 12.469L54.42 20.5237L1.60446 36.0073L0.0651618 34.4689L0 14.26L7.15163 12.1632L7.73546 8.49417L15.1638 6.44753L13.324 10.3542L47.9831 0.192516C48.5566 0.0273051 49.0717 -0.0257276 49.5247 0.0267205C50.2256 0.0449316 50.674 0.475151 50.7246 0.525706C51.2056 0.891676 52.3044 2.06535 52.8151 2.74688C53.1525 3.3531 53.332 4.18032 53.3349 5.21661ZM46.7396 9.11742L45.375 9.51661L45.3599 4.958L46.7237 4.55721C47.628 4.29307 47.9315 4.54497 47.9336 5.61229L47.939 7.13882C47.9424 8.37674 47.6418 8.8527 46.7396 9.11742ZM17.712 22.3158L18.6297 14.6905L19.517 21.7871L17.712 22.3158ZM48.8725 10.5796C50.1158 9.75495 50.5354 8.85503 50.5297 7.15747L50.5189 4.05298C50.5131 1.96715 49.6866 1.23899 47.9603 1.74366L42.7442 3.2731L42.7908 17.7539L38.9535 18.8806L38.9372 13.6175L42.0592 12.6979L42.052 10.1024L38.9283 11.022L38.9158 6.99589L42.0257 6.07893L42.0176 3.48362L36.2986 5.16531V5.16808L28.8144 7.3607L28.8163 8.04282C27.8398 7.28459 26.4133 7.6999 26.0823 7.79625L26.0801 7.79689C25.799 7.87906 23.3712 8.5909 22.575 10.9122C22.2349 11.8651 22.2396 13.0021 22.241 13.3214L22.2411 13.3648C22.2463 14.8198 22.4485 15.4157 22.752 15.9342C23.1148 16.5317 23.3973 16.716 23.9405 16.9935L26.4145 18.2837C26.4331 18.2961 26.4584 18.3106 26.4886 18.3279C26.6233 18.4049 26.8547 18.5372 27.0188 18.7861C27.3173 19.2353 27.3091 19.9375 27.3059 20.2174C27.3056 20.2419 27.3054 20.2631 27.3054 20.2807C27.3095 21.4442 27.3118 22.1962 26.9321 22.6719C26.7512 22.9185 26.4904 23.1158 26.0297 23.2517C25.6283 23.3689 25.3871 23.3189 25.2265 23.244C24.757 23.0195 24.7585 22.3599 24.7598 21.7604C24.7599 21.7176 24.76 21.6751 24.7599 21.6331L24.7531 19.6446L22.1643 20.4037L22.1697 22.4143L20.1016 9.9139L17.1122 10.7898L14.8261 26.0022L12.5702 26.6486L12.5704 12.1209L11.5583 12.4177L9.97139 15.6739L9.97128 30.0091L16.4587 28.1211V28.1204L17.026 27.9543L17.3982 25.0535L19.8066 24.3478L20.1563 27.0364L22.8061 26.2602L22.5684 24.8247C22.6853 25.0488 22.8722 25.3196 23.2047 25.5361C24.0495 26.089 25.1145 25.948 26.1174 25.6539C28.5255 24.9481 29.4654 23.435 29.7818 21.9585C29.9197 21.2637 29.918 20.7065 29.9141 19.4005L29.9141 19.3943C29.9138 19.2932 29.9139 19.1951 29.914 19.0999C29.915 18.0536 29.9158 17.3449 29.3424 16.6006C28.9186 16.0449 28.3555 15.6997 28.1743 15.607L25.639 14.2387C25.3571 14.0783 25.1753 13.9619 25.0953 13.8398C24.7906 13.4027 24.8063 12.4617 24.8091 12.2937L24.8094 12.2719C24.8049 10.8418 25.3657 10.4095 25.9675 10.2334C26.9712 9.93983 27.1343 10.6208 27.1359 11.1295L27.1407 12.8752L29.7506 12.1106L29.7439 10.413C29.743 10.0093 29.7227 9.76865 29.6859 9.58115L31.431 9.06978L31.4776 23.7188L34.1066 22.9491L34.0595 8.3001L36.3066 7.64144L36.354 22.288L42.9093 20.3642V20.363L45.4083 19.63L45.3828 12.0398L46.3662 11.7519L48.3965 18.754L51.1066 17.9607L48.8725 10.5796ZM5.04305 28.9892L5.04304 28.9892L5.04139 28.9897L3.93801 29.3131L3.92117 23.9038L5.0457 23.576C5.56575 23.4226 6.20831 23.2581 6.41052 23.9035C6.49161 24.1228 6.49401 24.3164 6.49458 24.8252L6.50055 26.8389C6.50459 28.0029 6.2654 28.4859 5.70381 28.7471C5.50405 28.8541 5.2638 28.9245 5.04305 28.9892ZM3.89857 17.1144L4.94201 16.8089C5.48386 16.6501 6.04527 16.509 6.22903 17.2562C6.2699 17.462 6.28999 17.5777 6.29118 17.9913L6.29573 19.1545C6.29874 20.1978 6.05949 20.6322 5.55829 20.9002C5.39729 20.9717 5.21808 21.0488 4.8554 21.1551L3.91218 21.43L3.89857 17.1144ZM8.65487 22.0078C8.39326 21.6959 8.07098 21.5478 7.24834 21.595L7.29647 21.5699C7.73251 21.3439 8.56048 20.9146 8.80733 19.4625C8.88447 18.993 8.88324 18.3188 8.88309 18.2333L8.88308 18.2268L8.87858 16.6986C8.8783 16.5932 8.87732 16.4893 8.87562 16.3863L12.8612 8.2121L8.80505 9.39816L8.05242 14.1269C8.04814 14.124 8.04415 14.121 8.04015 14.118L8.04013 14.118C8.03569 14.1146 8.03124 14.1112 8.02635 14.108C7.34535 13.6503 6.57318 13.8774 5.76132 14.1162L5.67661 14.1411L1.28243 15.429L1.33701 32.5518L5.81176 31.2403C6.47455 31.0463 7.1969 30.8341 7.81818 30.3124C8.95922 29.3469 9.03441 27.8206 9.05313 27.4022C9.05285 27.2845 9.05737 27.1601 9.06199 27.0327L9.06199 27.0326L9.062 27.0325C9.06693 26.8966 9.07198 26.7573 9.07146 26.6196L9.06468 24.1936C9.06444 24.1317 9.06445 24.0697 9.06445 24.0078V24.0071C9.06452 23.269 9.0646 22.5366 8.65487 22.0078Z" fill="black"/>
</svg>
