<svg width="24" height="24" viewBox="0 0 24 24" fill="none" xmlns="http://www.w3.org/2000/svg">
<path d="M20.16 9.71999C20.136 9.69599 20.136 9.69599 20.112 9.71999L19.44 10.56L19.296 11.424L18.936 11.496L17.76 12.576V12.384L18.24 11.304L18.576 10.992L18.912 10.368V10.344C18.912 10.344 18.912 10.344 18.888 10.32H18.744L18.36 10.008L18.576 9.35999V9.33599L18.504 9.19199L18.48 9.16799L17.928 9.23999L17.952 8.97599L18.144 8.75999V8.73599L18.072 8.47199L18.168 8.37599V8.35199L18.072 8.11199L18.144 8.01599V7.99199L17.856 7.67999L17.28 7.51199L17.376 7.24799C17.376 7.24799 17.376 7.24799 17.376 7.22399L17.28 7.00799C17.28 7.00799 17.28 7.00799 17.256 6.98399L16.104 6.62399C16.104 6.62399 16.104 6.62399 16.08 6.62399L15.744 6.71999L11.616 5.37599L11.352 4.70399L11.04 4.51199H11.016L10.872 4.55999L10.848 4.43999C10.848 4.43999 10.848 4.41599 10.824 4.41599L9.81597 4.29599H9.79197L9.59997 4.48799L9.55197 4.39199L9.71997 3.83999L9.69597 3.35999C9.69597 3.35999 9.69597 3.35999 9.69597 3.33599L9.35997 3.02399H9.33597L7.43997 4.15199L6.79197 4.27199L6.38397 4.19999L6.19197 3.86399L5.95197 3.64799H5.92797C5.92797 3.64799 5.90397 3.64799 5.90397 3.67199L5.75997 3.98399L5.54397 3.95999H5.51997C5.51997 3.95999 5.51997 3.95999 5.51997 3.98399L5.44797 6.31199L5.27997 6.52799L4.31997 6.95999L4.03197 7.51199L3.76797 7.75199C3.76797 7.75199 3.76797 7.75199 3.76797 7.77599L3.71997 8.27999C3.71997 8.27999 3.71997 8.30399 3.74397 8.30399L4.07997 8.39999L4.31997 8.92799L4.00797 9.45599V10.152L3.86397 10.32V10.344L3.98397 10.896L3.79197 11.592V11.616L4.03197 11.976L4.65597 12.24L4.94397 12.672H4.96797L5.44797 12.648L5.87997 12.888L6.43197 13.536L6.62397 14.064L7.91997 15.12L8.15997 15.672L8.25597 16.8L8.71197 19.92C8.71197 19.92 8.71197 19.944 8.73597 19.944L9.76797 20.328L9.93597 20.712L9.91197 21.048V21.072C9.91197 21.072 9.91197 21.072 9.93597 21.072H18.336H18.36C18.36 21.072 18.36 21.072 18.36 21.048L18.096 18.048L19.032 14.808L19.224 12.768L20.328 10.296C20.328 10.296 20.328 10.296 20.328 10.272L20.16 9.71999Z" fill="#21786A"/>
</svg>
