<svg width="109" height="37" viewBox="0 0 109 37" fill="none" xmlns="http://www.w3.org/2000/svg">
<path fill-rule="evenodd" clip-rule="evenodd" d="M61.5128 0.965743C63.4792 0.965743 65.3332 2.25791 65.9511 4.16808C67.131 7.65133 63.9286 11.1908 60.4454 10.2357C59.2656 9.89858 58.1981 9.33677 57.1869 8.71877C56.4003 8.26932 55.6138 7.76369 54.8834 7.25806L53.0294 6.02207C52.889 5.93779 52.7485 5.83948 52.6081 5.74116C52.4676 5.64284 52.3272 5.54452 52.1867 5.46025C50.7822 4.56135 49.3776 3.66245 47.8046 2.93209C46.3438 2.25791 45.0517 1.97701 43.6471 2.98827C42.0741 4.1119 41.7932 6.5277 43.0853 7.98841C43.7033 8.71877 44.6584 9.16822 45.6135 9.16822C46.407 9.16822 47.3001 8.86937 48.1052 8.59996C48.1552 8.58324 48.2048 8.56664 48.254 8.55023C49.5462 8.0446 50.8945 7.53896 52.2991 7.4266C53.0856 7.37042 54.0407 7.37042 54.6025 8.0446C54.6587 8.10078 54.6587 8.15696 54.6025 8.15696H54.4901C53.4125 7.32426 51.1392 8.3706 49.7179 9.02476C49.509 9.12091 49.3185 9.20859 49.1529 9.28059C48.0293 9.8424 46.4562 10.348 45.4449 10.348C43.4786 10.348 41.6246 9.05586 41.0066 7.14569C39.8268 3.71863 43.0291 0.123022 46.5686 1.07811C47.7484 1.41519 48.8158 1.97701 49.8271 2.595C50.6136 3.04445 51.4002 3.55009 52.1305 4.05572L53.9845 5.29171C54.125 5.37598 54.2654 5.4743 54.4059 5.57261C54.5463 5.67093 54.6868 5.76925 54.8272 5.85352C56.2318 6.80861 57.6363 7.70751 59.1532 8.38168C60.6139 9.05586 61.9061 9.33677 63.3106 8.3255C64.8837 7.20188 65.1646 4.78608 63.8724 3.32536C63.2544 2.595 62.2994 2.14555 61.3443 2.14555C60.5508 2.14555 59.6577 2.44441 58.8526 2.71382C58.8026 2.73053 58.753 2.74714 58.7038 2.76355C57.4116 3.26918 56.0632 3.77481 54.6587 3.88717C53.8722 3.94336 52.9171 3.94336 52.3553 3.26918C52.2991 3.213 52.2991 3.15682 52.3553 3.15682H52.4676C53.5452 3.98951 55.8186 2.94318 57.2399 2.28901C57.4488 2.19286 57.6393 2.10518 57.8048 2.03319C58.9285 1.47137 60.5016 0.965743 61.5128 0.965743ZM66.9626 36.1915L67.6367 35.742C67.9176 36.0229 68.3109 36.1915 68.648 36.2476C69.0975 36.2476 69.4907 36.1353 69.4907 35.8544C69.4907 35.5735 69.0975 35.5173 68.648 35.5173H68.1424V34.8993H68.648C69.0413 34.8993 69.4345 34.7869 69.4345 34.5622C69.4345 34.2813 69.0413 34.2251 68.7042 34.2251C68.2547 34.2251 67.8615 34.3937 67.6367 34.6746L67.0187 34.2251C67.3558 33.7757 67.9738 33.4948 68.7604 33.4948C69.6031 33.4948 70.4458 33.7757 70.4458 34.3937C70.4458 34.7307 70.1087 35.0678 69.6593 35.124C70.1087 35.1802 70.5582 35.4049 70.5582 35.9106C70.5582 36.5847 69.7716 36.9218 68.7604 36.9218C67.9738 36.9218 67.3558 36.6409 66.9626 36.1915ZM63.4231 34.1127C63.8726 34.0566 64.3782 33.8318 64.6591 33.5509H65.3333V36.8095H64.3782V34.506C64.1535 34.6746 63.7602 34.7869 63.4231 34.8431V34.1127ZM59.041 34.6184C59.041 34.9555 59.3781 35.0678 59.8275 35.0678C60.1646 35.0678 60.5579 34.9555 60.895 34.7307C60.7826 34.2813 60.3893 34.1127 59.8837 34.1127C59.3781 34.1127 59.041 34.2813 59.041 34.6184ZM60.895 35.2926C60.5579 35.5735 60.0522 35.6858 59.6028 35.6858C58.9286 35.6858 58.0297 35.4049 58.0297 34.5622C58.0297 33.888 58.6477 33.3824 59.8275 33.3824C61.0635 33.3824 61.8501 34.0566 61.8501 35.124C61.8501 36.1915 61.0635 36.8656 59.8275 36.8656C59.041 36.8656 58.4792 36.6409 58.0859 36.3038L58.5915 35.7982C58.9286 36.0791 59.3219 36.1915 59.7152 36.1915C60.3893 36.1915 60.8388 35.9667 60.895 35.2926ZM54.3218 34.1127C54.7712 34.0566 55.2768 33.8318 55.5577 33.5509H56.2319V36.8095H55.2768V34.506C55.0521 34.6746 54.6588 34.7869 54.3218 34.8431V34.1127ZM51.4565 27.1463L50.5576 26.9215L50.2205 24.5619H50.4452C50.7261 25.3485 51.1194 25.9664 51.625 26.4159C52.0745 26.8654 52.5801 27.0901 53.0858 27.0901C53.479 27.0901 53.8161 26.9777 54.0408 26.6968C54.3218 26.4721 54.4341 26.0788 54.4341 25.6855C54.4341 25.3485 54.3779 25.0675 54.2094 24.8428C54.0408 24.6181 53.8161 24.3372 53.5352 24.1125C53.2543 23.8316 52.9172 23.6068 52.4678 23.3259C52.0745 23.045 51.6812 22.7641 51.4003 22.4832C51.0632 22.2023 50.8385 21.8652 50.67 21.5281C50.5014 21.191 50.4452 20.8539 50.4452 20.4607C50.4452 19.7865 50.67 19.2247 51.1756 18.7752C51.625 18.3258 52.2992 18.1011 53.1419 18.1011C53.2543 18.1011 53.3807 18.1151 53.5071 18.1291C53.6335 18.1432 53.7599 18.1572 53.8723 18.1572C54.097 18.1572 54.3779 18.2134 54.6588 18.2696L55.2207 18.382L55.5577 20.573L55.4454 20.6292C55.1645 19.8427 54.7712 19.2809 54.3779 18.8876C53.9847 18.4943 53.5352 18.3258 53.0858 18.3258C52.6925 18.3258 52.4116 18.4381 52.1869 18.6629C51.9621 18.8876 51.8498 19.1685 51.8498 19.5618C51.8498 19.955 52.0183 20.3483 52.2992 20.6854C52.5801 21.0787 53.0296 21.4158 53.5914 21.7528C54.3779 22.2585 54.9959 22.7641 55.333 23.2136C55.6701 23.7192 55.8386 24.2248 55.8386 24.7866C55.8386 25.5732 55.5577 26.135 55.0521 26.6406C54.5465 27.1463 53.9285 27.371 53.1419 27.371C52.9172 27.371 52.6363 27.371 52.3554 27.3148L52.3553 27.3148C52.0744 27.2586 51.7936 27.2024 51.4565 27.1463ZM46.8496 33.5509H50.5014V34.3375H49.1531V36.8656H48.198V34.3375H46.8496V33.5509ZM48.198 19.5618C47.8609 19.5618 47.58 19.6741 47.2991 19.8427C47.1515 19.9534 47.0281 20.0883 46.8971 20.2316C46.8287 20.3064 46.7582 20.3836 46.6811 20.4607V24.5619C46.6811 25.3485 46.7373 25.9664 46.9058 26.3035C47.0744 26.6406 47.2991 26.8654 47.6362 26.9777L47.58 27.0339H44.1529L44.0967 26.9777C44.4338 26.9215 44.6586 26.6406 44.8271 26.3035C44.9956 25.9664 45.0518 25.3485 45.0518 24.5619V21.3034C45.0518 20.5169 44.9956 19.955 44.8271 19.5618C44.6586 19.2247 44.4338 19 44.0406 18.8876L44.2091 18.7752L46.7934 18.1011L46.8496 18.1572V20.236C46.962 19.6741 47.1867 19.2247 47.4676 18.8876C47.7485 18.5505 48.0856 18.3258 48.5351 18.1572C48.9283 17.9887 49.434 17.9887 49.9396 18.1572L49.6025 20.0112L49.5463 20.0674C49.3216 19.8989 49.0969 19.7303 48.8722 19.6741C48.6474 19.618 48.4227 19.5618 48.198 19.5618ZM41.5124 36.2476L42.018 35.6858C42.4113 36.0229 42.9169 36.1915 43.5911 36.0791C44.1529 36.0791 44.4338 35.9667 44.4338 35.742C44.4338 35.5173 44.1529 35.4611 43.4787 35.4049C42.5237 35.3487 41.6248 35.124 41.6248 34.3937C41.6248 33.7195 42.4113 33.3262 43.4226 33.3262C44.1529 33.3262 44.7709 33.4948 45.2204 33.8318L44.7147 34.4498C44.3776 34.2251 43.9282 34.1127 43.4226 34.1127C43.0293 34.1127 42.5798 34.1689 42.5798 34.3937C42.5798 34.5878 42.8733 34.6142 43.3154 34.654C43.3851 34.6603 43.4584 34.6669 43.5349 34.6746C44.6586 34.7869 45.3889 35.0117 45.3889 35.742C45.3889 36.4162 44.7709 36.8656 43.5911 36.8656C42.7484 36.8656 42.018 36.6409 41.5124 36.2476ZM36.4561 33.5509H39.8831H39.9393V34.2813H37.4112V34.8431H39.4899V35.5173H37.4112V36.0791H39.9393V36.8095H36.4561V33.5509ZM5.21923 15.0673C4.93833 15.1234 4.7136 15.2358 4.54506 15.4605C4.37651 15.6853 4.26415 15.9662 4.26415 16.4156C4.20797 16.8089 4.15179 17.3707 4.15179 18.0449V20.573V21.0225V25.8541C4.15179 26.3597 4.03943 26.8654 3.87088 27.2586C3.70234 27.6519 3.47761 27.989 3.14052 28.3261C2.85962 28.607 2.46635 28.8879 2.0169 29.0564C1.56745 29.2812 1.118 29.3935 0.556181 29.4497L0.5 29.3935C1.118 29.0564 1.56745 28.607 1.84835 28.1013C2.12926 27.5395 2.24162 26.8092 2.24162 25.9103V20.9663V20.5169V17.9887C2.24162 17.3145 2.18544 16.7527 2.12926 16.3594C2.07308 15.9662 1.96072 15.6853 1.79217 15.4605C1.62363 15.292 1.3989 15.1234 1.118 15.0673L1.17418 15.0111H5.16305L5.21923 15.0673ZM7.85976 22.2585H11.0059V21.9214V21.5281C11.0059 20.573 10.8936 19.7865 10.6126 19.2247C10.3879 18.6629 9.99465 18.382 9.5452 18.382C9.03957 18.382 8.59012 18.7191 8.30921 19.337C8.0283 19.955 7.85976 20.7978 7.85976 21.8652V22.2585ZM12.6352 21.9214V22.2585V22.5394H7.85976C7.85976 23.2697 8.0283 23.8877 8.19685 24.3934C8.42157 25.0675 8.75866 25.6294 9.15193 25.9664C9.5452 26.3035 9.99465 26.4721 10.4441 26.4721C10.7812 26.4721 11.1183 26.3597 11.4554 26.135C11.7925 25.9103 12.0172 25.5732 12.2419 25.1799L12.3543 25.2361C12.2419 25.6294 12.0172 26.0226 11.7363 26.3597C11.4554 26.6968 11.1745 26.9215 10.7812 27.0901C10.3879 27.2586 9.99465 27.371 9.5452 27.371C8.87102 27.371 8.25303 27.1463 7.69122 26.753C7.1294 26.3035 6.73613 25.7979 6.39904 25.0675C6.11814 24.3372 5.94959 23.5506 5.94959 22.6517C5.94959 21.7528 6.06196 20.9663 6.39904 20.2921C6.73613 19.618 7.18558 19.0561 7.69122 18.6629C8.19685 18.2696 8.81484 18.1011 9.48902 18.1011C10.107 18.1011 10.6688 18.2696 11.1183 18.6067C11.6239 18.9438 11.961 19.3932 12.2419 19.955C12.5228 20.5169 12.6352 21.1349 12.6352 21.9214ZM24.9951 18.4381C24.7704 18.4943 24.5456 18.6629 24.3771 18.8876C24.2085 19.1123 24.04 19.5056 23.8715 20.0112L21.3433 27.371H21.2309L18.8713 20.3483L16.5117 27.371H16.3993L13.8712 20.0112C13.7026 19.5056 13.5341 19.1123 13.3655 18.8876C13.197 18.6629 12.9723 18.4943 12.6914 18.4381L12.7475 18.382H16.2308L16.3431 18.4943C16.0622 18.5505 15.8937 18.7191 15.7813 19C15.669 19.2809 15.669 19.5618 15.7813 19.955L17.1859 24.6743L18.7028 19.8989L18.5904 19.6741C18.478 19.2809 18.3657 19.0561 18.1971 18.8314C18.0286 18.6067 17.86 18.4943 17.6353 18.4381L17.6915 18.382H21.1186V18.4381C20.8377 18.5505 20.6691 18.7191 20.5567 18.9438C20.4444 19.1685 20.4444 19.5056 20.5567 19.8989L22.0175 24.6181L23.5344 19.955C23.6467 19.5618 23.6467 19.2247 23.5905 18.9438C23.5344 18.6629 23.3658 18.4943 23.0849 18.4381L23.1411 18.382H24.9951V18.4381ZM26.7929 22.2585H29.939V21.9214V21.5281C29.939 20.573 29.8267 19.7865 29.5458 19.2247C29.321 18.6629 28.9278 18.382 28.4783 18.382C27.9727 18.382 27.5232 18.7191 27.2423 19.337C26.9614 19.955 26.7929 20.7978 26.7929 21.8652V22.2585ZM31.6245 21.9214V22.2585C31.6245 22.2743 31.6201 22.2945 31.6149 22.3178C31.6018 22.3778 31.5841 22.4586 31.6245 22.5394H26.8491C26.8491 23.2697 27.0176 23.8877 27.1862 24.3934C27.4109 25.0675 27.748 25.6294 28.1412 25.9664C28.5345 26.3035 28.984 26.4721 29.4334 26.4721C29.7705 26.4721 30.1076 26.3597 30.4447 26.135C30.7818 25.9103 31.0065 25.5732 31.2312 25.1799L31.3436 25.2361C31.2312 25.6294 31.0065 26.0226 30.7256 26.3597C30.4447 26.6968 30.1638 26.9215 29.7705 27.0901C29.3772 27.2586 28.984 27.371 28.5345 27.371C27.8603 27.371 27.2423 27.1463 26.6805 26.753C26.1187 26.3035 25.7254 25.7979 25.3883 25.0675C25.1074 24.3372 24.9389 23.5506 24.9389 22.6517C24.9389 21.7528 25.0513 20.9663 25.3883 20.2921C25.7254 19.618 26.1749 19.0561 26.6805 18.6629C27.1861 18.2696 27.8041 18.1011 28.4783 18.1011C29.0963 18.1011 29.6581 18.2696 30.1076 18.6067C30.6132 18.9438 30.9503 19.3932 31.2312 19.955C31.5121 20.5169 31.6245 21.1349 31.6245 21.9214ZM35.8943 27.0339L35.8381 27.0901V27.0339H32.3548L32.2987 26.9777C32.6357 26.9215 32.8605 26.6406 33.029 26.3035C33.1976 25.9664 33.2537 25.3485 33.2537 24.5619V17.8763C33.2537 17.0898 33.1976 16.528 33.029 16.1347C32.8605 15.7976 32.6357 15.5729 32.2425 15.4605L32.2987 15.4044L34.883 14.7302L34.9392 14.7864V24.6181C34.9392 25.4046 35.0515 26.0226 35.1639 26.3597C35.3325 26.6968 35.5572 26.9215 35.8943 27.0339ZM38.4224 22.2585H41.5686V21.9214V21.5281C41.5686 20.573 41.4562 19.7865 41.1753 19.2247C40.9506 18.6629 40.5573 18.382 40.1079 18.382C39.6022 18.382 39.1528 18.7191 38.8719 19.337C38.591 19.955 38.4224 20.7978 38.4224 21.8652V22.2585ZM40.1079 18.1011C40.7259 18.1011 41.2877 18.2696 41.7371 18.6067C42.2428 18.8876 42.5798 19.337 42.9731 19.8989C43.254 20.4607 43.3664 21.0787 43.3664 21.8652V22.2023C43.3664 22.2585 43.3523 22.3147 43.3383 22.3708C43.3242 22.427 43.3102 22.4832 43.3102 22.5394H38.5348C38.5348 23.2697 38.7033 23.8877 38.8719 24.3934C39.0966 25.0675 39.4337 25.6294 39.827 25.9664C40.2202 26.3035 40.6697 26.4721 41.1191 26.4721C41.4562 26.4721 41.7933 26.3597 42.1304 26.135C42.4675 25.9103 42.6922 25.5732 42.9169 25.1799L42.9731 25.2361C42.8608 25.6294 42.636 26.0226 42.3551 26.3597C42.0742 26.6968 41.7933 26.9215 41.4 27.0901C41.0068 27.2586 40.6135 27.371 40.164 27.371C39.4899 27.371 38.8719 27.1463 38.3101 26.753C37.7482 26.3035 37.355 25.7979 37.0179 25.0675C36.6808 24.3372 36.5123 23.5506 36.5123 22.6517C36.5123 21.7528 36.6808 20.9663 37.0179 20.2921C37.355 19.618 37.8044 19.0561 38.3101 18.6629C38.8157 18.2696 39.4337 18.1011 40.1079 18.1011ZM70.6143 17.9887V24.0563C70.6143 24.7305 70.6143 25.2923 70.8391 25.6855C70.8953 26.0788 71.0076 26.4159 71.1762 26.5844C71.3447 26.8092 71.5694 26.9215 71.8503 27.0339L71.7942 27.0901H67.8053L67.7491 27.0339C68.03 26.9215 68.2547 26.753 68.4233 26.5844C68.5918 26.4159 68.7042 26.0788 68.7604 25.6855C68.8166 25.2923 68.8727 24.7305 68.8727 24.0563V16.2471L65.2209 27.371H65.1086L61.4006 16.4156V24.3372C61.4006 24.899 61.4568 25.3485 61.513 25.7417C61.5691 26.135 61.6815 26.4159 61.8501 26.5844C62.0186 26.8092 62.2433 26.9215 62.5242 26.9777L62.4681 27.0339H59.9961L59.9399 26.9777C60.1646 26.9215 60.3893 26.753 60.5579 26.5844C60.7264 26.3597 60.8388 26.0788 60.895 25.7417C60.9512 25.4046 61.0073 24.899 61.0073 24.3372V17.9887C61.0073 17.3145 60.9512 16.7527 60.895 16.3594C60.8388 15.9662 60.7264 15.6853 60.5579 15.4605C60.3893 15.292 60.1646 15.1234 59.8837 15.0673L59.9399 15.0111H62.749L65.7828 24.281L68.1986 16.8651C68.2794 16.5822 68.3602 16.3575 68.4201 16.1909C68.4435 16.1258 68.4637 16.0697 68.4795 16.0223L68.4795 16.0223C68.5357 15.8538 68.5918 15.6852 68.5918 15.5167C68.648 15.4044 68.648 15.2358 68.648 15.0111H71.6818L71.738 15.0673C71.4571 15.1234 71.2323 15.2358 71.0638 15.4605C70.8953 15.6291 70.7829 15.9662 70.7267 16.3594C70.6705 16.7527 70.6143 17.3145 70.6143 17.9887ZM80.5585 26.8092L80.5023 26.8654L77.9741 27.371L77.9179 27.3148V26.0788C77.637 26.5283 77.2438 26.8092 76.8505 27.0339C76.401 27.2586 75.9516 27.371 75.5021 27.371C74.828 27.371 74.2661 27.0901 73.8167 26.6406C73.3672 26.1912 73.1425 25.5732 73.1425 24.8428V20.9101C73.1425 20.1236 73.0863 19.5056 72.9178 19.1685C72.7492 18.7752 72.5245 18.5505 72.1312 18.4381L72.1874 18.382H74.828V24.6743C74.828 25.2361 74.9403 25.6855 75.2212 26.0226C75.5021 26.3597 75.8954 26.5283 76.3448 26.5283C76.5696 26.5283 76.8505 26.4721 77.1314 26.3597C77.4123 26.2474 77.6932 26.0788 77.9179 25.9103V20.9101C77.9179 20.1236 77.8056 19.5618 77.6932 19.1685C77.5808 18.7752 77.3561 18.5505 77.019 18.4381L77.0752 18.382H79.6034V24.3934C79.6034 25.1799 79.6596 25.7417 79.8281 26.135C79.9405 26.4721 80.2214 26.6968 80.5585 26.8092ZM86.2328 25.7979C86.1204 26.135 86.008 26.4159 85.7833 26.6406C85.5586 26.8654 85.3339 27.0901 84.9968 27.2586C84.7159 27.371 84.3788 27.4272 84.0979 27.4272C83.5922 27.4272 83.199 27.2586 82.8057 26.9215C82.4124 26.5844 82.2439 26.0226 82.2439 25.2923V18.6629H81.0079V18.382C81.7944 18.382 82.4124 18.1572 82.8619 17.764C83.3113 17.3145 83.6484 16.7527 83.817 16.0223L83.9855 15.9662V18.382H85.8395V18.6067H83.9855V25.1799C83.9855 25.5732 84.0979 25.9103 84.2664 26.135C84.435 26.3597 84.6597 26.4721 84.9406 26.4721C85.1653 26.4721 85.39 26.4159 85.5586 26.3035C85.7833 26.1912 85.9519 26.0226 86.1204 25.7417L86.2328 25.7979ZM94.7723 26.8092L94.7162 26.8654L92.188 27.371L92.1318 27.3148V26.0788C91.8509 26.5283 91.4576 26.8092 91.0644 27.0339C90.6149 27.2586 90.1655 27.371 89.716 27.371C89.0418 27.371 88.48 27.0901 88.0306 26.6406C87.5811 26.1912 87.3564 25.5732 87.3564 24.8428V20.9101C87.3564 20.1236 87.3002 19.5056 87.1317 19.1685C86.9631 18.7752 86.7384 18.5505 86.3451 18.4381L86.4013 18.382H89.0418V24.6743C89.0418 25.2361 89.1542 25.6855 89.4351 26.0226C89.716 26.3597 90.1093 26.5283 90.5587 26.5283C90.7835 26.5283 91.0644 26.4721 91.3453 26.3597C91.6262 26.2474 91.9071 26.0788 92.1318 25.9103V20.9101C92.1318 20.1236 92.0195 19.5618 91.9071 19.1685C91.7947 18.7752 91.57 18.5505 91.2329 18.4381L91.2891 18.382H93.8173V24.3934C93.8173 25.1799 93.8734 25.7417 94.042 26.135C94.1543 26.4721 94.4353 26.6968 94.7723 26.8092ZM99.2107 26.3597C99.4354 26.2474 99.6601 26.0226 99.8848 25.6855V21.9214C99.7163 22.0338 99.5478 22.1461 99.3792 22.2023C99.2617 22.2806 99.1442 22.3317 99.0457 22.3744C99.003 22.393 98.9638 22.41 98.9298 22.427C98.3118 22.7079 97.8623 23.045 97.6376 23.4945C97.4129 23.8877 97.3005 24.3372 97.3005 24.8428C97.3005 25.4046 97.4129 25.7979 97.6376 26.0788C97.8623 26.3597 98.1432 26.5283 98.5365 26.5283C98.705 26.5283 98.9859 26.4721 99.2107 26.3597ZM103.087 26.3597L103.143 26.4159C102.975 26.6968 102.694 26.9215 102.469 26.9777C102.188 27.1463 101.907 27.2586 101.514 27.2586C101.177 27.2586 100.784 27.1463 100.503 26.9215C100.166 26.6968 99.9972 26.3597 99.9972 25.9103H99.941C99.6601 26.3597 99.323 26.6968 98.9298 26.9215C98.5365 27.1463 98.1432 27.2586 97.6938 27.2586C97.132 27.2586 96.6263 27.0901 96.1769 26.6968C95.7836 26.3035 95.5589 25.7979 95.5589 25.1237C95.5589 24.6181 95.6712 24.2248 95.896 23.8877C96.0645 23.5507 96.3454 23.3259 96.6825 23.1012C96.9634 22.9327 97.3005 22.7641 97.6376 22.6517C97.757 22.6119 97.8694 22.5721 97.9747 22.5348C98.1666 22.4668 98.3352 22.4071 98.4803 22.3708C98.8736 22.2585 99.2107 22.0899 99.4916 21.9214C99.7725 21.7528 99.8848 21.5281 99.8848 21.3034V20.6854C99.8848 20.1798 99.7163 19.7303 99.4354 19.3932C99.0983 19.0561 98.705 18.8876 98.2556 18.8876C97.9185 18.8876 97.5814 19 97.1881 19.1685C96.7949 19.3932 96.514 19.7303 96.2892 20.1798L96.2331 20.1236C96.3454 19.7303 96.514 19.337 96.7949 19.0561C97.0758 18.7752 97.3567 18.5505 97.75 18.382C98.1432 18.2134 98.5365 18.1572 98.9298 18.1572C99.3792 18.1572 99.8287 18.2696 100.222 18.4381C100.615 18.6067 100.952 18.9438 101.177 19.337C101.458 19.7303 101.57 20.236 101.57 20.7978V25.7417C101.57 26.0226 101.683 26.2474 101.795 26.4159C101.907 26.5844 102.076 26.6406 102.301 26.6406C102.469 26.6406 102.582 26.6406 102.694 26.5844C102.72 26.5712 102.75 26.5579 102.781 26.5439C102.883 26.4986 103.001 26.4456 103.087 26.3597ZM106.065 26.3597C106.233 26.6968 106.458 26.9215 106.795 27.0339H106.683H103.256L103.2 26.9777C103.537 26.9215 103.761 26.6406 103.93 26.3035C104.098 25.9664 104.155 25.3485 104.155 24.5619V17.8763C104.155 17.0898 104.098 16.528 103.93 16.1347C103.761 15.7976 103.537 15.5729 103.143 15.4605L103.2 15.4044L105.784 14.7302L105.84 14.7864V24.6181C105.84 25.4046 105.952 26.0226 106.065 26.3597ZM107.526 15.8538H107.863C107.919 15.8538 107.975 15.8538 107.975 15.7976C107.975 15.6853 107.863 15.6853 107.806 15.6853H107.526V15.8538ZM107.975 15.9662L108.2 16.1909H107.975L107.806 15.9662H107.582V16.1909H107.413V15.5167H107.863C108.031 15.5167 108.144 15.5729 108.144 15.7414C108.144 15.8538 108.087 15.9662 107.975 15.9662ZM108.312 16.4156C108.424 16.2471 108.537 16.0785 108.537 15.8538C108.537 15.6853 108.424 15.4605 108.312 15.292C108.144 15.1796 107.975 15.0673 107.75 15.0673C107.526 15.0673 107.357 15.1234 107.188 15.292C107.076 15.4605 106.964 15.6291 106.964 15.8538C106.964 16.0785 107.02 16.2471 107.188 16.4156C107.357 16.528 107.526 16.6403 107.75 16.6403C107.975 16.6403 108.144 16.5842 108.312 16.4156ZM107.75 14.8987C108.256 14.8987 108.705 15.3482 108.705 15.8538C108.705 16.4156 108.256 16.8089 107.75 16.8089C107.245 16.8089 106.795 16.3594 106.795 15.8538C106.795 15.3482 107.245 14.8987 107.75 14.8987Z" fill="black"/>
</svg>
