<svg width="221" height="37" viewBox="0 0 221 37" fill="none" xmlns="http://www.w3.org/2000/svg">
<path d="M6.49445 17.187L4.88141 16.7837C3.3417 16.4171 2.86512 16.0872 2.86512 15.2806C2.86512 14.1808 4.14821 13.8876 4.91807 13.8876C5.90789 13.8876 6.64108 14.3641 7.11766 15.244C7.15432 15.3173 7.22764 15.3906 7.30096 15.3906C7.37428 15.4273 7.48426 15.3906 7.55758 15.354L8.98732 14.4008C9.0973 14.3275 9.17062 14.1442 9.0973 14.0342C8.40076 12.6045 6.93436 11.8346 5.02805 11.8346C2.7918 11.8346 0.518886 12.9711 0.518886 15.5373C0.518886 16.6737 1.06878 18.1768 3.67163 18.8L5.24801 19.1666C6.45778 19.4599 7.19098 19.8265 7.19098 20.7063C7.19098 21.8061 5.98121 22.2827 4.80809 22.2827C3.37836 22.2827 2.53518 21.4395 2.0586 20.7063C2.02194 20.633 1.94862 20.5963 1.8753 20.5597C1.80198 20.5597 1.72866 20.5597 1.65534 20.5963L0.262267 21.5495C0.115627 21.6595 0.0789673 21.8428 0.188947 21.9527C1.21542 23.4925 2.7918 24.299 4.80809 24.299C7.00768 24.299 9.53721 23.3092 9.53721 20.523C9.50055 18.9466 8.32744 17.6269 6.49445 17.187ZM16.7959 5.16252H15.1828C14.9995 5.16252 14.8896 5.30916 14.8896 5.4558V23.7857C14.8896 23.969 15.0362 24.079 15.1828 24.079H16.7959C16.9792 24.079 17.0891 23.9324 17.0891 23.7857V5.4558C17.0891 5.2725 16.9425 5.16252 16.7959 5.16252ZM28.1238 11.8346C24.6777 11.8346 22.0749 14.5108 22.0749 18.1035C22.0749 21.6595 24.7511 24.3723 28.2704 24.3723C30.36 24.3723 32.083 23.5291 33.4028 21.8428C33.5128 21.6961 33.4761 21.5128 33.3661 21.4395L32.1197 20.413C32.0464 20.3764 31.9731 20.3397 31.8631 20.3397C31.7898 20.3397 31.7164 20.413 31.6431 20.4863C31.0932 21.3662 29.9201 22.3193 28.2338 22.3193C26.2908 22.3193 24.7144 20.8896 24.3845 18.8366H33.5494C33.7327 18.8366 33.8427 18.69 33.8427 18.5434V17.8102C33.8794 14.3275 31.4965 11.8713 28.1238 11.8346ZM24.4578 16.9303C24.6411 15.3173 26.3274 13.8876 28.1238 13.8876C30.1034 13.8876 31.3865 15.0607 31.4965 16.9303H24.4578ZM45.0606 11.8346C41.6146 11.8346 39.0118 14.5108 39.0118 18.1035C39.0118 21.6595 41.6879 24.3723 45.2073 24.3723C47.2969 24.3723 49.0199 23.5291 50.3397 21.8428C50.4496 21.6961 50.413 21.5128 50.303 21.4395L49.0566 20.413C48.9832 20.3764 48.9099 20.3397 48.7999 20.3397C48.7266 20.3397 48.6533 20.413 48.58 20.4863C48.0301 21.3662 46.857 22.3193 45.1706 22.3193C43.2276 22.3193 41.6513 20.8896 41.3213 18.8366H50.4863C50.6696 18.8366 50.7796 18.69 50.7796 18.5434V17.8102C50.8162 14.3275 48.47 11.8713 45.0606 11.8346ZM41.4313 16.9303C41.6146 15.3173 43.301 13.8876 45.0973 13.8876C47.0769 13.8876 48.36 15.0607 48.47 16.9303H41.4313ZM62.4741 11.8346C61.2276 11.8346 59.5046 12.3112 58.2948 13.5576V12.4578C58.2948 12.2745 58.1482 12.1645 58.0016 12.1645H56.3885C56.2052 12.1645 56.0953 12.3112 56.0953 12.4578V30.7878C56.0953 30.9711 56.2419 31.081 56.3885 31.081H58.0016C58.1849 31.081 58.2948 30.9344 58.2948 30.7878V22.6859C59.5046 23.9324 61.2276 24.409 62.4741 24.409C66.1767 24.409 68.8529 21.7694 68.8529 18.1401C68.8162 14.4741 66.1401 11.8346 62.4741 11.8346ZM62.4741 22.3193C60.0545 22.3193 58.2215 20.523 58.2215 18.1035C58.2215 15.7206 60.0545 13.8876 62.4741 13.8876C64.8203 13.8876 66.47 15.6106 66.47 18.1035C66.47 20.5963 64.8203 22.3193 62.4741 22.3193ZM130.185 11.8346C128.865 11.8346 127.472 12.4945 126.592 13.4476C126.592 13.1177 126.556 12.7511 126.519 12.4212C126.482 12.2745 126.372 12.1645 126.226 12.1645H124.576C124.503 12.1645 124.429 12.2012 124.356 12.2745C124.283 12.3479 124.283 12.4212 124.283 12.4945L124.319 12.9344C124.356 13.6676 124.429 14.4741 124.429 14.9507V23.8224C124.429 24.0057 124.576 24.1157 124.723 24.1157H126.336C126.519 24.1157 126.629 23.969 126.629 23.8224V17.9935C126.629 13.9609 129.672 13.9242 129.782 13.9242C131.798 13.9242 132.568 14.9507 132.568 17.5169V23.7857C132.568 23.969 132.714 24.079 132.861 24.079H134.474C134.657 24.079 134.767 23.9324 134.767 23.7857V16.5637C134.767 13.521 133.154 11.8346 130.185 11.8346ZM148.588 23.8224C148.625 23.969 148.735 24.079 148.881 24.079H150.531C150.604 24.079 150.678 24.0424 150.751 23.969C150.824 23.8957 150.824 23.8224 150.824 23.7491L150.788 23.3092C150.751 22.576 150.678 21.7694 150.678 21.2929V12.4212C150.678 12.2379 150.531 12.1279 150.384 12.1279H148.771C148.588 12.1279 148.478 12.2745 148.478 12.4212V18.2501C148.478 22.2827 145.435 22.3193 145.325 22.3193C143.309 22.3193 142.539 21.2929 142.539 18.7267V12.4578C142.539 12.2745 142.393 12.1645 142.246 12.1645H140.633C140.45 12.1645 140.34 12.3112 140.34 12.4578V19.6798C140.34 22.7226 141.953 24.409 144.922 24.409C146.242 24.409 147.635 23.7491 148.515 22.7959C148.551 23.1259 148.551 23.4925 148.588 23.8224ZM173.92 23.7857V16.5637C173.92 13.521 172.307 11.8346 169.338 11.8346C167.835 11.8346 166.405 12.6045 165.598 13.8509C164.718 12.2379 163.142 11.8346 161.969 11.8346C160.686 11.8346 159.403 12.4212 158.56 13.3377V12.4212C158.56 12.2379 158.413 12.1279 158.266 12.1279H156.543C156.47 12.1279 156.397 12.1646 156.323 12.2379C156.25 12.3112 156.25 12.3845 156.25 12.4578L156.287 13.1177C156.323 13.7409 156.36 14.3641 156.36 14.9507V23.7857C156.36 23.969 156.507 24.079 156.653 24.079H158.266C158.45 24.079 158.56 23.9324 158.56 23.7857V17.9568C158.56 13.9975 161.162 13.8876 161.492 13.8876C163.362 13.8876 164.059 14.7674 164.059 17.1503V23.7857C164.059 23.969 164.205 24.079 164.352 24.079H165.965C166.148 24.079 166.258 23.9324 166.258 23.7857V17.7369C166.258 16.5637 166.551 13.8876 169.191 13.8876C171.061 13.8876 171.757 14.7674 171.757 17.1503V23.7857C171.757 23.969 171.904 24.079 172.05 24.079H173.663C173.773 24.079 173.92 23.969 173.92 23.7857ZM192.36 18.1035C192.36 14.4741 189.684 11.8346 185.981 11.8346C184.735 11.8346 183.012 12.3112 181.802 13.5576V5.4558C181.802 5.2725 181.655 5.16252 181.509 5.16252H179.896C179.712 5.16252 179.602 5.30916 179.602 5.4558V23.7857C179.602 23.969 179.749 24.079 179.896 24.079H181.509C181.692 24.079 181.802 23.9324 181.802 23.7857V22.6859C183.012 23.9324 184.735 24.409 185.981 24.409C189.684 24.3723 192.36 21.7328 192.36 18.1035ZM185.981 22.3193C183.562 22.3193 181.729 20.523 181.729 18.1035C181.729 15.7206 183.562 13.8876 185.981 13.8876C188.327 13.8876 189.977 15.6106 189.977 18.1035C190.014 20.5963 188.364 22.3193 185.981 22.3193ZM205.888 20.413C205.814 20.3764 205.741 20.3397 205.631 20.3397C205.558 20.3397 205.484 20.413 205.411 20.4863C204.861 21.3662 203.688 22.3193 202.002 22.3193C200.059 22.3193 198.482 20.8896 198.152 18.8366H207.317C207.501 18.8366 207.611 18.69 207.611 18.5434V17.8102C207.611 14.3275 205.228 11.8713 201.855 11.8346C198.409 11.8346 195.806 14.5108 195.806 18.1035C195.806 21.6595 198.482 24.3723 202.002 24.3723C204.091 24.3723 205.814 23.5291 207.134 21.8428C207.244 21.6961 207.207 21.5128 207.097 21.4395L205.888 20.413ZM201.892 13.8876C203.871 13.8876 205.154 15.0607 205.264 16.9303H198.226C198.446 15.354 200.095 13.8876 201.892 13.8876ZM213.036 15.9772V23.7857C213.036 23.969 213.183 24.079 213.329 24.079H214.942C215.126 24.079 215.236 23.9324 215.236 23.7857V17.3703C215.236 15.9772 216.226 14.0342 218.462 14.0342C218.828 14.0342 219.085 14.0709 219.268 14.1442C219.342 14.1809 219.452 14.1808 219.525 14.1075C219.598 14.0709 219.672 13.9975 219.672 13.8876L220.002 12.3112C220.038 12.1646 219.928 12.0179 219.782 11.9812C219.415 11.8713 219.012 11.8346 218.498 11.8346C216.885 11.8346 215.749 12.5678 215.089 13.4843V12.4212C215.089 12.2379 214.942 12.1279 214.796 12.1279H213.219C213.146 12.1279 213.073 12.1646 213 12.2012C212.926 12.2745 212.926 12.3479 212.926 12.4212L212.963 13.8509L213.036 15.9772ZM115.374 18.8C115.374 28.7348 107.382 36.8 97.4842 36.8C87.6227 36.8 79.5942 28.7348 79.5942 18.8C79.5942 8.86516 87.5861 0.799988 97.4842 0.799988C107.382 0.799988 115.374 8.86516 115.374 18.8ZM103.02 20.9263C102.91 20.633 102.727 20.523 102.36 20.523C101.993 20.523 92.6085 20.523 92.6085 20.523C92.6085 20.523 92.2052 20.5597 92.0219 20.8896C91.8753 21.1829 91.8753 21.4762 91.9486 21.6595C92.0219 21.8061 96.971 31.3377 96.971 31.3377C96.971 31.3377 97.081 31.7043 97.4476 31.7043C97.7775 31.7043 97.9608 31.3377 97.9608 31.3377L102.947 21.6228C102.947 21.6595 103.167 21.2562 103.02 20.9263ZM102.947 15.9772L97.9608 6.26232C97.9608 6.26232 97.7775 5.89572 97.4476 5.89572C97.081 5.89572 96.971 6.26232 96.971 6.26232C96.971 6.26232 92.0219 15.7939 91.9486 15.9405C91.8753 16.0872 91.8386 16.4171 92.0219 16.7104C92.2052 17.0403 92.6085 17.077 92.6085 17.077C92.6085 17.077 101.993 17.077 102.36 17.077C102.727 17.077 102.91 16.967 103.02 16.6737C103.167 16.3438 102.947 15.9772 102.947 15.9772Z" fill="black"/>
</svg>
