<svg width="36" height="36" viewBox="0 0 36 36" fill="none" xmlns="http://www.w3.org/2000/svg">
<g clip-path="url(#clip0_34_7)">
<path d="M4.65338 0C2.08339 0 0 2.08339 0 4.65338V31.4103C0 33.9803 2.08339 36.0637 4.65338 36.0637H31.4103C33.9803 36.0637 36.0637 33.9803 36.0637 31.4103V4.65338C36.0637 2.08339 33.9803 0 31.4103 0H4.65338ZM4.65338 2.32669H31.4103C32.6953 2.32669 33.737 3.36838 33.737 4.65338V31.4103C33.737 32.6953 32.6953 33.737 31.4103 33.737H4.65338C3.36838 33.737 2.32669 32.6953 2.32669 31.4103V4.65338C2.32669 3.36838 3.36838 2.32669 4.65338 2.32669Z" fill="black"/>
<path d="M16.2871 24.4302V26.7569H29.0839V24.4302H16.2871Z" fill="black"/>
<path d="M16.2871 9.30676V21.8127H18.9046V11.6335H21.5222V21.8127H24.1397V11.6335H25.8847C26.3666 11.6335 26.7572 12.0241 26.7572 12.506V21.8127H29.3747V12.2151C29.3747 10.6089 28.0726 9.30676 26.4664 9.30676H16.2871Z" fill="black"/>
<path d="M9.59781 9.30676C7.99157 9.30676 6.68945 10.6089 6.68945 12.2151V18.9044C6.68945 20.5106 7.99157 21.8127 9.59781 21.8127H11.9245V22.3944C11.9245 23.5188 10.8828 24.4302 9.59781 24.4302H8.14363V26.7569H9.59781C12.3284 26.7569 14.542 24.8037 14.542 22.3944V9.30676H9.59781ZM10.1795 11.6335H11.9245V19.486H10.1795C9.69761 19.486 9.30698 19.0954 9.30698 18.6135V12.506C9.30698 12.0241 9.69761 11.6335 10.1795 11.6335Z" fill="black"/>
</g>
<defs>
<clipPath id="clip0_34_7">
<rect width="36" height="36" fill="white"/>
</clipPath>
</defs>
</svg>
