<svg width="300" height="102" viewBox="0 0 300 102" fill="none" xmlns="http://www.w3.org/2000/svg">
<path fill-rule="evenodd" clip-rule="evenodd" d="M35.6852 75.6074C35.6901 75.6074 35.6961 75.6045 35.7025 75.6014C35.7096 75.598 35.7171 75.5944 35.724 75.5944C33.382 79.8157 31.3424 84.006 29.7811 87.9222C28.4705 84.6703 26.8704 81.209 25.0351 77.6883V55.3023C34.2092 59.4176 35.5559 69.6671 35.6852 75.6074ZM43.161 32.7975L43.1584 32.7923C47.1315 38.6912 51.6423 44.1791 56.4917 48.5633C51.6371 52.919 47.0979 58.2828 43.042 63.9775C43.0409 63.9684 43.0418 63.9567 43.0427 63.9449V63.9448C43.0438 63.9301 43.0449 63.9152 43.042 63.9052C41.4394 58.5336 37.7635 52.0504 31.8723 48.478C38.8725 45.4432 41.9408 38.6059 43.161 32.7975ZM25.0325 42.866L25.0402 19.1539C27.1392 15.1576 28.941 11.1974 30.2877 7.45172C31.6966 11.4636 33.5345 15.7418 35.7059 20.0483L35.7033 20.0458C35.7033 25.8878 35.5301 38.7378 25.0325 42.866ZM16.5589 63.6156C16.5589 63.6237 16.5603 63.6326 16.5617 63.641L16.5617 63.641C16.5629 63.6487 16.5641 63.656 16.5641 63.6622C12.5858 57.8873 8.17839 52.4589 3.54352 48.1135C8.14737 43.7966 12.5677 38.5336 16.5563 32.9216L16.5589 63.6156ZM17.2594 27.7878C12.1774 35.4161 6.18537 42.5765 -0.000488281 47.9351C13.3768 59.8622 25.2936 80.9557 29.6467 95.0206C34.0747 80.7334 46.0561 60.3094 60.1029 48.5685C46.0535 36.8326 34.4573 15.4936 30.4196 0.386963C28.2068 8.65374 23.3988 18.5671 17.2594 27.7878ZM0.180558 52.6861C11.9655 64.409 22.246 82.6124 26.6378 95.6563L27.8683 95.6614C23.4687 82.2118 12.573 62.9459 0.185728 51.1118L0.180558 52.6861ZM32.803 95.6691C37.3861 82.3668 47.8424 64.6649 60.2296 53.2884L60.2218 51.8408C47.2349 63.3517 36.2203 81.9791 31.6475 95.6743L32.803 95.6691ZM36.0601 95.6614C40.5425 83.5637 49.5098 68.3537 60.2297 57.5019L60.2219 55.8915C48.8945 66.9966 39.3818 83.1191 34.8684 95.6614H36.0601ZM23.5825 95.6589C19.2061 83.7189 10.4016 68.1909 0.190971 57.0987L0.198726 55.4573C10.9807 66.8183 20.3151 83.3001 24.7095 95.6589H23.5825ZM106.364 79.4149H98.9424H98.9372V81.0253C99.1239 81.0598 99.3309 81.0767 99.5445 81.0942C100.502 81.1727 101.595 81.2622 101.595 82.9848C101.595 84.864 100.54 87.1983 99.723 88.6278C98.0402 85.655 96.6728 82.3437 95.3544 79.0323C98.0118 77.9415 99.9893 75.1187 99.9893 72.1097C99.9893 70.2666 99.2526 66.9553 95.8042 66.9553C94.4859 66.9553 93.4338 67.4438 92.5652 68.7596C91.539 70.339 91.3012 71.7711 91.3012 73.8753C91.3012 75.6434 91.8828 77.6778 92.4334 79.2572C90.1198 80.7617 87.827 83.6594 87.827 87.6067C87.827 89.6799 88.4629 91.7091 89.4865 93.1748C90.5696 94.7206 92.149 95.2479 93.6225 95.2479C95.4423 95.2479 97.2311 94.0795 98.627 92.5027C99.5214 94.0045 101.023 95.023 102.417 95.023C104.521 95.023 105.55 93.7073 106.392 91.0732C106.628 90.2847 106.837 89.4937 106.891 88.6278L105.813 88.3279C105.707 88.969 105.55 89.6101 105.392 90.2098C104.971 91.4144 104.311 92.2416 103.337 92.2416C102.365 92.2416 101.68 91.3675 100.998 90.497L100.998 90.4969L100.998 90.4968L100.998 90.4967L100.998 90.4966L100.998 90.4965L100.998 90.4965C100.831 90.2835 100.664 90.0708 100.493 89.8711C101.259 88.5916 101.944 87.1259 102.497 85.6214L103.021 84.1532C103.838 81.9352 104.495 80.9943 106.364 81.0305V79.4149ZM94.8581 92.7327C92.4877 92.7327 90.5955 88.7829 90.5955 85.6602C90.5955 83.4759 91.3296 81.9714 92.6195 80.8806C92.6996 80.7668 92.803 80.6945 92.909 80.6531C94.1731 84.528 95.8326 88.1418 97.8593 91.3394C96.9623 92.1304 95.936 92.7327 94.8581 92.7327ZM95.7809 68.5786C97.2053 68.5786 97.9135 70.1581 97.9135 72.0399C97.9135 74.8602 96.6779 76.7032 94.8581 77.5718C94.3049 76.2922 93.7026 73.8107 93.7026 72.2648C93.7026 70.4217 94.3334 68.5786 95.7809 68.5786ZM122.574 66.9603H123.603L130.58 91.3419C131.047 92.9173 131.579 92.9397 132.543 92.98L132.544 92.98H132.544C132.663 92.985 132.789 92.9903 132.922 92.9989V94.6869H124.839V92.9963C125.006 92.9875 125.174 92.9827 125.342 92.9779C125.919 92.9614 126.501 92.9448 127.049 92.7688C127.31 92.7326 127.602 92.3578 127.602 91.9416C127.602 91.7917 127.548 91.5306 127.496 91.3031L125.943 85.8488H118.834C118.544 86.8673 118.283 87.8418 118.045 88.8965L118.024 88.985L117.988 89.1288L117.988 89.1288L117.988 89.129L117.988 89.1291L117.988 89.1292C117.835 89.7494 117.728 90.1822 117.728 90.8559C117.728 92.9006 119.325 92.959 120.377 92.9976L120.413 92.9989V94.6869H113.465V92.9963C114.887 92.9575 115.701 91.9054 116.205 90.0623L122.574 66.9603ZM125.444 83.9282L122.337 72.867L119.338 83.9282H125.444ZM142.135 76.8169H141.266L140.468 78.2051C139.573 77.1504 138.413 76.6644 137.257 76.6644C135.018 76.6644 133.413 78.6549 133.413 81.8913C133.413 83.1346 133.597 84.2617 134.124 85.2388C134.706 86.2935 135.572 86.6321 136.44 86.9708C136.619 87.0258 136.798 87.0899 136.977 87.154C137.168 87.2224 137.358 87.2908 137.549 87.3482C137.678 87.3905 137.802 87.4306 137.923 87.4696C138.665 87.7093 139.28 87.9077 140.049 88.3279C140.894 88.8164 141.393 89.4963 141.393 90.8508C141.393 92.7663 139.917 93.746 138.759 93.746C136.182 93.746 134.809 91.2256 134.204 87.9143H133.23V95.0643H134.101L135.018 93.4074C136.021 94.6843 137.363 95.253 138.679 95.253C139.602 95.253 140.92 94.7619 141.628 93.8985C142.657 92.6189 142.972 91.4143 142.972 89.4963C142.972 88.1056 142.657 86.8648 141.946 85.8851C141.078 84.758 140.289 84.4943 139.157 84.1945L137.606 83.7008L137.568 83.69C136.509 83.3899 134.866 82.9244 134.866 80.9193C134.866 79.0374 136.133 78.1741 137.288 78.1741C139.449 78.1741 140.659 80.317 141.186 83.101H142.135V76.8169ZM152.663 76.8169H153.529V83.101H152.583C152.059 80.317 150.846 78.1741 148.688 78.1741C147.53 78.1741 146.266 79.0374 146.266 80.9193C146.266 82.9233 147.907 83.3894 148.964 83.6895L149.003 83.7008L150.557 84.1945C151.689 84.4943 152.477 84.758 153.349 85.8851C154.057 86.8648 154.372 88.1056 154.372 89.4963C154.372 91.4143 154.057 92.6189 153.033 93.8985C152.322 94.7619 151.007 95.253 150.081 95.253C148.765 95.253 147.424 94.6843 146.423 93.4074L145.503 95.0643H144.635V87.9143H145.606C146.214 91.2256 147.584 93.746 150.164 93.746C151.322 93.746 152.798 92.7663 152.798 90.8508C152.798 89.4963 152.296 88.8164 151.454 88.3279C150.679 87.9056 150.064 87.7074 149.315 87.4661C149.198 87.4282 149.077 87.3892 148.951 87.3482C148.761 87.2908 148.571 87.2225 148.381 87.1541C148.202 87.09 148.024 87.0258 147.845 86.9708C146.977 86.6321 146.108 86.2935 145.529 85.2388C145.004 84.2617 144.821 83.1346 144.821 81.8913C144.821 78.6549 146.426 76.6644 148.662 76.6644C149.823 76.6644 150.978 77.1504 151.875 78.2051L152.663 76.8169ZM157.11 79.565C155.952 81.633 155.582 83.4424 155.582 86.1127C155.582 90.8898 157.609 95.2558 161.189 95.2558C164.877 95.2558 166.958 91.156 166.958 86.1489C166.958 81.1444 164.877 76.6698 161.137 76.6698C159.532 76.6698 158.084 77.833 157.11 79.565ZM161.163 93.8263C158.663 93.8263 158.268 88.7856 158.268 86.1489C158.268 83.1762 158.529 78.1743 161.292 78.1768C162.582 78.1768 163.347 79.3039 163.794 80.9221C164.267 82.7264 164.267 84.1947 164.267 86.1489C164.267 89.1604 163.955 93.8263 161.163 93.8263ZM178.275 89.7989C177.696 92.0168 176.802 94.1624 175.114 94.8396C174.589 95.0671 173.876 95.2558 173.325 95.2558C170.009 95.2558 167.954 91.0009 167.954 86.5625C167.954 81.0307 169.903 76.6698 174.039 76.6698C175.197 76.6698 176.065 77.0808 176.934 78.1355C177.487 78.8127 177.958 79.7924 177.958 80.8807C177.958 82.3102 177.539 83.5898 176.404 83.5898C175.538 83.5898 174.827 82.8376 174.827 81.5192C174.827 80.8714 175 80.5326 175.229 80.0829C175.252 80.0374 175.276 79.9907 175.3 79.9424C175.354 79.8674 175.541 79.4512 175.541 79.3737C175.541 78.5077 174.383 78.1717 174.013 78.1717C171.376 78.1717 170.642 82.6463 170.642 85.6578C170.642 89.0803 171.324 92.994 174.248 92.994C175.856 92.994 176.802 91.2258 177.329 89.2328L178.275 89.7989ZM178.64 93.3712V94.687H185.56V93.3712C185.197 93.401 184.818 93.3637 184.448 93.3273C184.336 93.3162 184.225 93.3053 184.115 93.2963C183.335 93.2315 183.338 92.9202 183.348 92.0212L183.349 91.8956L183.349 91.8181L183.35 91.7677L183.35 91.6807V77.2306L178.428 77.608V79.1874L180.005 79.2624C180.062 79.277 180.121 79.2874 180.179 79.2978C180.418 79.3404 180.651 79.3819 180.798 79.7148C180.935 80.2999 180.932 80.9162 180.929 81.5366C180.928 81.6315 180.928 81.7265 180.928 81.8215V90.4761C180.928 90.6001 180.929 90.7258 180.93 90.8524L180.93 90.8553V90.8556C180.937 91.609 180.944 92.395 180.718 93.0714C180.439 93.2849 180.091 93.3083 179.752 93.3312C179.615 93.3405 179.48 93.3496 179.351 93.3712H178.64ZM180.457 69.8918C180.457 71.0577 181.142 72.1899 181.985 72.1899C182.799 72.1899 183.562 71.1352 183.564 69.9668C183.564 68.7648 182.853 67.7489 182.011 67.7489C181.22 67.7489 180.457 68.7286 180.457 69.8918ZM197.252 89.4602C197.252 89.9875 197.252 90.5123 197.28 91.0784C197.303 91.6057 197.438 92.3579 197.805 92.6216C198.043 92.8853 198.384 92.9215 198.673 92.8103C198.821 92.7467 198.96 92.671 199.095 92.5971L199.095 92.597C199.201 92.5389 199.305 92.4819 199.41 92.4329C199.671 92.5079 199.754 92.619 199.754 92.9964C199.465 94.276 198.304 95.0282 197.409 95.0282C196.065 95.0282 195.411 94.0485 195.067 92.2442C193.909 94.2398 192.118 95.2557 190.329 95.2557C188.331 95.2557 186.617 93.9348 186.617 90.7785C186.617 85.8102 192.327 84.4194 194.936 83.8921C194.979 83.2068 194.954 82.4972 194.928 81.7851L194.928 81.7809C194.922 81.5946 194.915 81.4081 194.91 81.2218C194.832 78.9238 193.514 78.3628 192.092 78.3628C191.355 78.3628 190.381 78.4378 189.828 79.1538C189.538 79.5312 189.644 79.8311 189.828 80.2473C189.856 80.3276 189.887 80.409 189.918 80.4918C190.063 80.8759 190.221 81.2926 190.221 81.7879C190.221 83.1063 189.59 83.6336 188.75 83.6336C187.801 83.6336 187.351 82.5428 187.351 81.2632C187.351 79.6062 188.3 78.2905 189.275 77.652C190.407 76.8997 191.275 76.6748 192.485 76.6748C193.328 76.6748 194.222 76.8248 195.016 77.1996C197.117 78.2905 197.332 80.0586 197.332 82.9538L197.252 89.4602ZM189.194 90.4373C189.194 92.2442 190.221 93.3738 191.407 93.3738C192.511 93.3738 193.643 92.4691 194.302 91.2309C194.915 90.094 194.921 88.9859 194.927 87.6895V87.6873C194.928 87.4811 194.929 87.2701 194.933 87.0536V85.3966C194.714 85.456 194.477 85.5137 194.229 85.5743L194.229 85.5744C192.123 86.088 189.194 86.8024 189.194 90.4373ZM203.301 69.6333C203.146 72.7896 202.592 76.9669 199.775 77.2306L199.772 78.8902H201.931V91.1921C201.931 93.5625 203.352 95.2583 205.17 95.2583C208.248 95.2583 209.171 91.8332 209.145 87.9195H208.091C208.091 89.8376 207.726 93.0352 206.064 93.0352C204.407 93.0352 204.355 91.2309 204.355 90.14V78.8876H208.277V77.2306H204.355V69.6333H203.301ZM212.358 86.2236C212.253 89.6875 213.307 93.3349 216.096 93.3349C217.624 93.3349 218.624 92.469 219.519 90.737C219.552 90.6553 219.588 90.5733 219.624 90.4911C219.702 90.3109 219.781 90.1297 219.834 89.9486C219.932 89.7766 220.006 89.5692 220.08 89.3613L220.08 89.3612L220.098 89.3101L220.995 90.021C219.914 93.4099 218.283 95.253 215.652 95.253C213.941 95.253 212.361 94.4982 211.2 92.6551C209.991 90.7344 209.675 88.7802 209.675 86.221C209.675 81.2553 211.911 76.667 215.569 76.667C217.518 76.667 218.992 78.1326 219.966 80.4669C220.456 81.6247 220.628 82.9805 220.798 84.3182L220.835 84.6054C220.912 85.1328 220.941 85.6601 220.966 86.2236H212.358ZM216.833 84.6804C216.896 84.6804 216.956 84.6809 217.014 84.6814C217.812 84.6884 218.203 84.6918 218.203 83.2897C218.203 80.8443 217.492 78.174 215.489 78.174C213.147 78.174 212.539 82.0101 212.41 84.683L216.833 84.6804ZM231.366 76.8169H230.495L229.706 78.2051C228.812 77.1504 227.651 76.6644 226.496 76.6644C224.257 76.6644 222.652 78.6549 222.652 81.8913C222.652 83.1346 222.835 84.2617 223.363 85.2388C223.942 86.2935 224.81 86.6321 225.679 86.9708C225.858 87.0258 226.036 87.0899 226.214 87.1541L226.214 87.1541L226.215 87.1542C226.405 87.2225 226.595 87.2908 226.785 87.3482L226.894 87.3835L226.999 87.4177L227.127 87.4589L227.135 87.4615L227.136 87.4619L227.148 87.4657L227.149 87.4661L227.149 87.4661L227.149 87.4662C227.897 87.7074 228.512 87.9057 229.287 88.3279C230.133 88.8164 230.632 89.4963 230.632 90.8508C230.632 92.7663 229.156 93.746 227.998 93.746C225.418 93.746 224.045 91.2256 223.443 87.9143H222.468V95.0643H223.337L224.257 93.4074C225.257 94.6843 226.599 95.253 227.915 95.253C228.838 95.253 230.156 94.7619 230.864 93.8985C231.893 92.6189 232.209 91.4143 232.209 89.4963C232.209 88.1056 231.893 86.8648 231.182 85.8851C230.314 84.758 229.523 84.4943 228.39 84.1945L226.837 83.7008L226.796 83.6892C225.739 83.3891 224.097 82.9226 224.097 80.9193C224.097 79.0374 225.363 78.1741 226.522 78.1741C228.68 78.1741 229.892 80.317 230.42 83.101H231.366V76.8169ZM234.207 100.521C234.285 100.425 234.365 100.329 234.444 100.233C235.082 99.4599 235.738 98.6642 236.205 97.6621C236.417 97.2098 237.154 95.5166 236.838 94.9919C236.833 94.9846 236.828 94.9788 236.823 94.9737C236.814 94.9655 236.806 94.9596 236.798 94.9538L236.791 94.9487L236.787 94.9455C236.784 94.9435 236.782 94.9415 236.78 94.9394L236.775 94.9352C236.77 94.9302 236.766 94.9243 236.761 94.9169H236.681L236.523 94.9557C235.967 95.0694 235.709 94.9944 235.179 94.7308C234.677 94.2422 234.414 93.6373 234.414 92.7714C234.414 91.6081 235.205 90.5896 236.019 90.5896C237.601 90.5896 238.257 92.3603 238.257 94.4283C238.257 97.5096 236.386 99.9576 234.781 101.612L234.207 100.521ZM246.571 92.9963V94.6869H255.233V92.9937C254.958 92.9439 254.662 92.9545 254.365 92.9653C253.753 92.9873 253.132 93.0097 252.653 92.5052C252.556 92.3927 252.501 92.2395 252.448 92.0911C252.429 92.0383 252.41 91.986 252.39 91.9365C252.349 91.7114 252.353 91.4863 252.358 91.2448C252.359 91.1646 252.361 91.0826 252.361 90.9981V71.4324C252.361 71.0214 252.361 70.6078 252.415 70.1942C252.599 69.6669 252.759 69.4807 253.155 69.3282C253.863 69.2145 254.574 69.2145 255.285 69.2145H255.285V67.5239H246.599V69.2145C246.88 69.2654 247.181 69.2532 247.485 69.241C248.093 69.2165 248.714 69.1915 249.205 69.6669C249.497 70.1559 249.496 70.5138 249.495 71.1035L249.494 71.2463V90.887C249.494 91.8305 249.494 92.3914 248.807 92.7689C248.459 92.9658 247.705 92.9746 247.112 92.9816C246.903 92.984 246.715 92.9862 246.571 92.9963ZM256.205 93.3739H256.864C256.985 93.3523 257.113 93.3432 257.242 93.3339C257.561 93.311 257.891 93.2874 258.154 93.0741C258.312 92.9604 258.363 92.5855 258.363 92.3193V81.8242C258.363 81.7304 258.364 81.6365 258.364 81.5427C258.368 80.9212 258.371 80.3037 258.231 79.7175C258.125 79.3844 257.917 79.343 257.702 79.3004C257.65 79.2901 257.598 79.2797 257.546 79.2651L256.202 79.1901V77.6107L260.729 77.2333V80.4309H260.783C262.021 77.3083 263.603 76.6698 264.813 76.6698C265.945 76.6698 267.92 77.4582 268.654 80.4309C268.866 81.2581 268.998 82.3128 268.998 84.006V92.0944C268.998 92.1887 269.004 92.2831 269.011 92.3774C269.017 92.4718 269.024 92.5661 269.024 92.6605C269.052 92.9991 269.29 93.2266 269.502 93.2602C269.696 93.2806 269.89 93.2903 270.088 93.3001L270.088 93.3001C270.266 93.309 270.447 93.318 270.634 93.3352L271.107 93.3739V94.6871H264.448V93.3714C264.776 93.3996 265.088 93.3661 265.406 93.3318L265.51 93.3206C265.554 93.3159 265.599 93.3114 265.644 93.3071C265.684 93.3033 265.724 93.2997 265.764 93.2964C265.95 93.2964 266.266 93.224 266.397 92.9965C266.446 92.9492 266.476 92.8564 266.505 92.7658C266.521 92.713 266.538 92.661 266.558 92.6191C266.584 92.433 266.584 92.2417 266.584 92.0556V83.8896C266.584 82.6319 266.516 81.9895 266.463 81.4814L266.452 81.3693C266.291 79.8648 265.188 78.8851 264.053 78.8851C262.921 78.8851 261.897 79.976 261.344 81.3693C260.788 82.7988 260.788 84.1507 260.788 85.7327V92.0143C260.803 92.1165 260.811 92.2301 260.818 92.3485V92.3488V92.349C260.824 92.449 260.831 92.5524 260.842 92.6553C260.886 93.3566 261.618 93.3408 262.119 93.33C262.237 93.3275 262.342 93.3252 262.422 93.3326L262.921 93.3714V94.6871H256.207L256.205 93.3739ZM278.842 94.8396C280.527 94.1624 281.421 92.0168 282 89.7989L281.054 89.2328C280.524 91.2258 279.578 92.994 277.973 92.994C275.049 92.994 274.364 89.0803 274.364 85.6578C274.364 82.6463 275.101 78.1717 277.735 78.1717C278.105 78.1717 279.263 78.5077 279.263 79.3737C279.263 79.4512 279.079 79.8674 279.025 79.9424C279 79.9926 278.975 80.0412 278.951 80.0885L278.95 80.0904C278.722 80.5364 278.549 80.875 278.549 81.5192C278.549 82.8376 279.26 83.5898 280.129 83.5898C281.264 83.5898 281.685 82.3102 281.685 80.8807C281.685 79.7924 281.212 78.8127 280.656 78.1355C279.79 77.0808 278.919 76.6698 277.761 76.6698C273.63 76.6698 271.684 81.0307 271.684 86.5625C271.684 91.0009 273.736 95.2558 277.053 95.2558C277.606 95.2558 278.317 95.0671 278.842 94.8396ZM285.286 90.5871C286.157 90.5871 286.92 91.6806 286.92 92.9188C286.92 94.1234 286.157 95.253 285.314 95.253C284.42 95.253 283.629 94.1983 283.629 92.9188C283.629 91.6418 284.42 90.5871 285.286 90.5871ZM78.1875 58.3032H298.361V62.1807H78.1875V58.3032ZM99.157 35.7391C99.0743 40.1801 98.9036 45.2596 97.0838 48.7829C95.264 52.239 92.3869 53.4384 89.6778 53.4384C85.1076 53.4384 81.2146 49.4912 81.2146 41.1701C81.2146 37.2901 82.6544 32.9188 85.2756 32.9188C87.1394 32.9188 88.4939 34.824 88.4939 37.9958C88.4939 40.8186 87.5194 43.0055 85.7435 43.0055C85.4307 43.0055 85.1312 42.9145 84.8304 42.8232C84.6018 42.7537 84.3723 42.684 84.1356 42.6539C84.009 42.6539 83.8797 42.7211 83.797 42.7935C83.7531 42.9357 83.6264 43.145 83.5411 43.2174C83.1172 44.696 84.3476 47.0949 84.9809 47.9402C86.0382 49.5636 87.5194 50.2667 88.9153 50.2667C91.4124 50.2667 93.3615 47.9402 94.0387 43.9205C94.5454 40.9582 94.5454 36.0959 94.5454 33.0612V33.061V9.2249C94.5454 9.07122 94.5471 8.91205 94.5489 8.74958V8.74944C94.556 8.09209 94.5637 7.38059 94.4601 6.75883C94.2895 5.5594 94.0801 5.20525 93.3614 4.85628C92.1336 4.64431 90.8618 4.64431 89.6339 4.64431V1.46737H103.73V4.64173C102.808 4.64173 101.887 4.71018 100.922 4.78181L100.894 4.7839C99.2009 4.92607 99.157 6.47706 99.157 8.94314V35.7391ZM112.948 49.0648C112.948 46.7383 111.72 44.6936 110.324 44.6936C108.926 44.6936 107.656 46.6685 107.656 49.0648C107.656 51.4611 108.926 53.436 110.368 53.436C111.72 53.436 112.948 51.3215 112.948 49.0648ZM147.884 35.7391C147.799 40.1801 147.628 45.2596 145.808 48.7829C143.988 52.239 141.111 53.4384 138.405 53.4384C133.829 53.4384 129.939 49.4912 129.939 41.1701C129.939 37.2901 131.379 32.9188 134 32.9188C135.864 32.9188 137.218 34.824 137.218 37.9958C137.218 40.8186 136.244 43.0055 134.468 43.0055C134.156 43.0055 133.857 42.9149 133.558 42.8237C133.328 42.7541 133.098 42.6841 132.86 42.6539C132.733 42.6539 132.604 42.7211 132.521 42.7935C132.477 42.9357 132.353 43.145 132.265 43.2174C131.844 44.696 133.069 47.0949 133.708 47.9402C134.765 49.5636 136.244 50.2667 137.64 50.2667C140.139 50.2667 142.086 47.9402 142.76 43.9205C143.27 40.9581 143.27 36.0958 143.27 33.061V9.2249C143.27 9.07608 143.271 8.92212 143.273 8.76499V8.76452V8.76404V8.76357V8.76308V8.7626V8.76211V8.76162V8.76113V8.76094C143.279 8.1004 143.287 7.38422 143.184 6.75883C143.016 5.5594 142.804 5.20525 142.083 4.85628C140.855 4.64431 139.586 4.64431 138.361 4.64431V1.46737H152.452V4.64173C151.53 4.64173 150.603 4.71055 149.636 4.78239L149.616 4.7839C147.925 4.92607 147.881 6.47706 147.881 8.94314L147.884 35.7391ZM161.248 49.0648C161.248 46.7383 160.02 44.6936 158.622 44.6936C157.223 44.6936 155.957 46.6685 155.957 49.0648C155.957 51.4611 157.223 53.436 158.666 53.436C160.02 53.436 161.248 51.3215 161.248 49.0648ZM178.027 52.3786V49.2042C179.214 49.2042 180.398 49.2042 181.54 48.9225C182.091 48.5683 182.597 48.147 182.639 47.0897C182.683 46.3843 182.683 45.6788 182.683 44.9759V44.9752V8.72859V8.72816C182.683 7.95283 182.683 7.24983 182.6 6.47448C182.262 4.99469 181.796 4.92129 180.914 4.78244L180.907 4.78131C179.976 4.63914 179.002 4.63914 178.03 4.63914V1.46737H191.955V4.64173C190.727 4.64173 189.502 4.64173 188.315 4.92349C188.211 5.02804 188.105 5.13324 187.999 5.23876L187.995 5.24305C187.89 5.34743 187.784 5.45212 187.68 5.55681C187.278 6.59144 187.288 7.72993 187.299 8.88436L187.299 8.88819C187.301 9.0708 187.302 9.25381 187.302 9.43687V29.7419L198.133 11.4816C198.23 11.2858 198.341 11.0712 198.46 10.8425L198.46 10.8423C199.069 9.67009 199.87 8.12591 199.87 6.82604C199.87 5.69898 199.193 4.92349 198.56 4.85111C198.273 4.8275 197.986 4.79561 197.7 4.76375C197.14 4.7014 196.581 4.63914 196.021 4.63914V1.46737H209.055V4.64173C205.839 4.85369 203.681 7.11038 201.481 10.8457L195.471 20.7901L205.586 45.1872C205.659 45.3623 205.73 45.542 205.801 45.7219L205.801 45.7221L205.801 45.7223C206.015 46.2647 206.23 46.8088 206.514 47.2319C206.894 48.147 207.488 48.7105 208.122 48.9225L208.193 48.9339C209.056 49.0721 209.883 49.2042 210.748 49.2042V52.3786H196.357V49.2042C196.553 49.2042 196.749 49.2076 196.947 49.211C198.029 49.2296 199.129 49.2485 200.17 48.7105C200.338 48.6433 200.506 48.4313 200.635 48.2194C200.945 47.1852 200.333 45.8563 199.933 44.9905L199.933 44.9892C199.896 44.9098 199.861 44.8343 199.829 44.7632L192.252 26.291L187.302 34.824V42.5789C187.302 42.9107 187.3 43.2426 187.298 43.5746V43.5749C187.291 44.8646 187.284 46.1555 187.385 47.4465C187.456 47.7409 187.588 48.0353 187.701 48.2902C187.723 48.3397 187.745 48.3877 187.765 48.4339C187.894 48.5968 188.049 48.717 188.191 48.8273C188.234 48.8605 188.276 48.8928 188.315 48.9251C188.444 48.9251 188.571 48.9608 188.699 48.9964C188.825 49.0319 188.952 49.0672 189.078 49.0672L191.955 49.2094V52.3838H178.027V52.3786ZM222.745 49.8374C218.26 49.8374 216.569 43.0001 216.737 36.5118H230.575C230.533 35.4545 230.492 34.4671 230.365 33.4796C230.343 33.2782 230.321 33.0764 230.299 32.8744L230.299 32.8741C230.027 30.3897 229.751 27.8735 228.967 25.7221C227.403 21.3483 225.033 18.6005 221.9 18.6005C216.019 18.6005 212.42 27.2033 212.42 36.5118C212.42 41.3044 212.927 44.9724 214.874 48.5682C216.737 52.0243 219.276 53.4357 222.029 53.4357C226.258 53.4357 228.882 49.9796 230.619 43.6334L229.179 42.2944C229.052 42.7158 228.923 43.1371 228.757 43.4912C228.672 43.8174 228.551 44.1446 228.43 44.4707C228.367 44.6383 228.305 44.8057 228.248 44.9724C226.808 48.2166 225.201 49.8374 222.745 49.8374ZM224.218 33.6236H224.218C224.126 33.6227 224.03 33.6218 223.931 33.6218H216.82C217.032 28.6147 218.007 21.4207 221.773 21.4207C224.991 21.4207 226.134 26.4304 226.134 31.011C226.134 33.6424 225.506 33.6362 224.219 33.6236H224.218ZM232.899 1.11308L240.729 0.40996V47.5109C240.729 48.077 240.729 48.7104 240.897 49.2041C240.979 49.4859 241.274 49.6952 241.447 49.7702C241.821 49.8542 242.212 49.8624 242.6 49.8705C242.868 49.8761 243.135 49.8817 243.394 49.9124H244.239V52.3785H233.279V49.9124C234.209 49.9124 235.14 49.9124 236.073 49.6978C236.409 49.4884 236.58 49.2067 236.75 48.6432C236.851 47.8541 236.844 47.0224 236.837 46.2174C236.835 46.0122 236.833 45.8089 236.833 45.6084V7.03786C236.833 6.12019 236.789 5.55666 236.453 4.78117C235.931 4.0759 235.234 4.08156 234.574 4.08691C234.377 4.0885 234.184 4.09007 234 4.07288H232.899V1.11308ZM254.9 0.40996L247.07 1.11308V4.07288H248.171C248.355 4.09007 248.547 4.0885 248.744 4.08691C249.403 4.08156 250.102 4.07589 250.624 4.78117C250.96 5.55666 251.004 6.12019 251.004 7.03786V45.6084C251.004 45.8066 251.006 46.0076 251.008 46.2103V46.2104V46.2105V46.2107V46.2108C251.015 47.0179 251.022 47.852 250.919 48.6432C250.751 49.2067 250.583 49.4884 250.241 49.6978C249.311 49.9124 248.38 49.9124 247.447 49.9124V52.3785H258.41V49.9124H257.565C257.305 49.8817 257.038 49.8761 256.77 49.8705C256.382 49.8624 255.991 49.8543 255.616 49.7702C255.448 49.6952 255.15 49.4859 255.065 49.2041C254.9 48.7104 254.9 48.0772 254.9 47.5111V47.5109V0.40996ZM266.235 36.5118C266.067 43.0001 267.76 49.8374 272.242 49.8374C274.698 49.8374 276.306 48.2166 277.746 44.9724C277.801 44.8096 277.862 44.6462 277.922 44.4824L277.923 44.4811L277.923 44.4803C278.045 44.151 278.168 43.8205 278.252 43.4912C278.423 43.1371 278.549 42.7158 278.676 42.2944L280.116 43.6334C278.381 49.9796 275.755 53.4357 271.523 53.4357C268.776 53.4357 266.235 52.0243 264.371 48.5682C262.424 44.9724 261.918 41.3044 261.918 36.5118C261.918 27.2033 265.516 18.6005 271.399 18.6005C274.53 18.6005 276.9 21.3483 278.464 25.7221C279.251 27.8887 279.527 30.4252 279.8 32.9266L279.849 33.3803L279.86 33.4796C279.986 34.4427 280.026 35.4058 280.069 36.4337V36.4346L280.072 36.5118H266.235ZM273.626 33.6228L273.716 33.6236C275.003 33.6362 275.631 33.6424 275.631 31.011C275.631 26.4304 274.488 21.4207 271.27 21.4207C267.504 21.4207 266.529 28.6147 266.317 33.6218H273.429C273.477 33.6218 273.525 33.622 273.572 33.6224L273.626 33.6228ZM290.353 28.0514H290.267V19.6605L282.481 20.3637V23.3261H283.327C283.46 23.3325 283.592 23.3357 283.723 23.339C284.964 23.3695 286.068 23.3966 286.374 26.0739V45.606L286.374 45.9925C286.378 49.1154 286.378 49.7678 284.342 49.7678C283.836 49.7678 283.327 49.8376 282.82 49.91V52.3761H294.248V49.91H293.147C293.108 49.91 293.065 49.9108 293.02 49.9119C292.97 49.9132 292.916 49.915 292.86 49.9169C291.955 49.9469 290.267 50.003 290.267 48.4288V40.3895C290.267 37.2152 290.986 22.6204 296.151 21.6329C296.108 21.7379 296.056 21.8251 296.003 21.9125C295.95 22.0016 295.896 22.0907 295.853 22.199C295.473 23.0417 295.261 24.1015 295.261 25.089C295.261 27.1337 296.195 28.8967 297.461 28.8967C299.154 28.8967 300 26.7822 300 24.1041C300 20.86 298.521 18.6033 296.657 18.6033C292.891 18.6033 290.859 24.3135 290.353 28.0514ZM43.7762 90.5018C43.7762 87.0017 46.612 84.4219 49.9647 84.4219C53.2838 84.4219 56.1195 87.0017 56.1195 90.5018C56.1195 94.0303 53.2838 96.6075 49.9647 96.6075C46.612 96.6075 43.7762 94.0303 43.7762 90.5018ZM49.9647 95.5942C52.7203 95.5942 54.8968 93.4331 54.8968 90.5018C54.8968 87.6143 52.7203 85.4378 49.9647 85.4378C47.1755 85.4378 45.0015 87.6143 45.0015 90.5018C45.0015 93.4331 47.1781 95.5942 49.9647 95.5942ZM48.6748 94.0303H47.6098V87.0017H50.2852C51.9448 87.0017 52.7668 87.6118 52.7668 88.9999C52.7668 90.2562 51.9758 90.8016 50.9444 90.9335L52.9426 94.0277H51.7509L49.8975 90.98H48.6722L48.6748 94.0303ZM49.9492 90.083C50.8513 90.083 51.6579 90.0184 51.6579 88.9379C51.6579 88.0667 50.8669 87.909 50.1276 87.909H48.6748V90.0856L49.9492 90.083ZM291.816 66.5315C288.463 66.5315 285.627 69.1087 285.627 72.6088C285.627 76.1399 288.463 78.7171 291.816 78.7145C295.135 78.7145 297.973 76.1373 297.973 72.6088C297.973 69.1113 295.135 66.5315 291.816 66.5315ZM296.745 72.6088C296.745 75.5402 294.569 77.7012 291.816 77.7012C289.026 77.7012 286.85 75.5402 286.85 72.6088C286.85 69.7214 289.026 67.5448 291.816 67.5448C294.569 67.5448 296.745 69.7214 296.745 72.6088ZM289.461 76.1399H290.526L290.523 73.0922H291.751L293.604 76.1399H294.796L292.798 73.0457C293.829 72.9138 294.62 72.3684 294.62 71.1121C294.62 69.7214 293.798 69.1113 292.136 69.1113H289.461V76.1399ZM293.509 71.0449C293.509 72.1254 292.702 72.19 291.797 72.19V72.1926H290.523V70.0161H291.976C292.715 70.0161 293.509 70.1737 293.509 71.0449Z" fill="black"/>
</svg>
