<svg width="37" height="37" viewBox="0 0 37 37" fill="none" xmlns="http://www.w3.org/2000/svg">
<g clip-path="url(#clip0_35_457)">
<path d="M12.0737 30.1505L13.3278 30.6123V24.6348H12.0737V30.1505ZM22.8926 30.6123L24.1476 30.1505V24.6348H22.8926V30.6123ZM14.1447 3.52148L12.0728 4.10472V22.7363H9.42121V12.5776H11.5206V11.2286H6.40912L5.94727 12.5776H8.07216V22.7363H5.94909L6.41095 24.0854H15.5778L15.3277 22.7363H13.3278V12.5776H20.1434L20.3861 11.2286H15.2656L14.1447 3.52148ZM13.3278 11.2286V6.04884L13.9914 11.2286H13.3278Z" fill="black"/>
<path d="M18.2046 0.210938C8.27932 0.210938 0.205078 8.28588 0.205078 18.21C0.205078 28.1342 8.27932 36.21 18.2046 36.21C28.1299 36.21 36.2051 28.136 36.2051 18.21C36.2051 8.28406 28.1299 0.210938 18.2046 0.210938ZM18.2046 34.9705H18.1882L19.812 24.6347H18.651L18.1462 29.6749L17.5748 24.0853H23.0285L24.1384 24.0743C25.8028 24.0182 27.3802 23.3176 28.5377 22.1204C29.6952 20.9232 30.3423 19.3231 30.3423 17.6578C30.3423 15.9926 29.6952 14.3925 28.5377 13.1953C27.3802 11.9981 25.8028 11.2975 24.1384 11.2413V4.10465L22.0756 3.46574L18.881 22.7326H17.3329L15.6069 13.1279H14.3336L18.0924 34.9678C8.90181 34.9066 1.44369 27.4149 1.44369 18.21C1.44369 8.96952 8.96297 1.45043 18.2046 1.45043C27.4463 1.45043 34.9656 8.96952 34.9656 18.21C34.9656 27.4505 27.4463 34.9705 18.2046 34.9705ZM24.1375 12.5903C25.434 12.66 26.6545 13.224 27.5476 14.1664C28.4407 15.1087 28.9385 16.3577 28.9385 17.656C28.9385 18.9543 28.4407 20.2032 27.5476 21.1456C26.6545 22.088 25.434 22.652 24.1375 22.7217V13.1279H22.8834V22.7363H20.1524L21.978 12.5776L24.1375 12.5903ZM22.2207 11.2285L22.8843 6.27787V11.2285H22.2207Z" fill="black"/>
</g>
<defs>
<clipPath id="clip0_35_457">
<rect width="36" height="36" fill="white" transform="translate(0.205078 0.210938)"/>
</clipPath>
</defs>
</svg>
